<mxfile host="app.diagrams.net" modified="2021-12-02T00:58:11.379Z" agent="5.0 (Windows NT 10.0; Win64; x64) AppleWebKit/537.36 (KHTML, like Gecko) Chrome/94.0.4606.85 YaBrowser/21.11.1.932 Yowser/2.5 Safari/537.36" etag="jTxgrc-NASbRScXdhb-t" version="15.8.8" type="github">
  <diagram id="y57L-m7suIzzgjUqDQzm" name="Page-1">
    <mxGraphModel dx="2249" dy="1934" grid="1" gridSize="10" guides="1" tooltips="1" connect="1" arrows="1" fold="1" page="1" pageScale="1" pageWidth="827" pageHeight="1169" math="0" shadow="0">
      <root>
        <mxCell id="0" />
        <mxCell id="1" parent="0" />
        <mxCell id="IF5qdtuyDoSc5kXCkOFZ-5" style="edgeStyle=orthogonalEdgeStyle;rounded=0;orthogonalLoop=1;jettySize=auto;html=1;exitX=0;exitY=0.5;exitDx=0;exitDy=0;entryX=1;entryY=0.5;entryDx=0;entryDy=0;" parent="1" source="IF5qdtuyDoSc5kXCkOFZ-1" target="IF5qdtuyDoSc5kXCkOFZ-3" edge="1">
          <mxGeometry relative="1" as="geometry" />
        </mxCell>
        <mxCell id="IF5qdtuyDoSc5kXCkOFZ-147" style="edgeStyle=orthogonalEdgeStyle;rounded=0;orthogonalLoop=1;jettySize=auto;html=1;exitX=1;exitY=0.5;exitDx=0;exitDy=0;entryX=0;entryY=0.5;entryDx=0;entryDy=0;fontSize=12;" parent="1" source="IF5qdtuyDoSc5kXCkOFZ-1" target="IF5qdtuyDoSc5kXCkOFZ-143" edge="1">
          <mxGeometry relative="1" as="geometry" />
        </mxCell>
        <mxCell id="IF5qdtuyDoSc5kXCkOFZ-1" value="Аномалия &quot;Поиск в темноте&quot;" style="rounded=0;whiteSpace=wrap;html=1;fillColor=#f5f5f5;strokeColor=#666666;fontColor=#333333;" parent="1" vertex="1">
          <mxGeometry x="350" y="280" width="120" height="60" as="geometry" />
        </mxCell>
        <mxCell id="IF5qdtuyDoSc5kXCkOFZ-2" value="Проект &quot;Старый дом&quot;" style="text;html=1;strokeColor=none;fillColor=none;align=center;verticalAlign=middle;whiteSpace=wrap;rounded=0;fontSize=27;fontStyle=1" parent="1" vertex="1">
          <mxGeometry x="270" y="-160" width="310" height="20" as="geometry" />
        </mxCell>
        <mxCell id="IF5qdtuyDoSc5kXCkOFZ-38" style="edgeStyle=orthogonalEdgeStyle;rounded=0;orthogonalLoop=1;jettySize=auto;html=1;exitX=0;exitY=0.5;exitDx=0;exitDy=0;entryX=1;entryY=0.5;entryDx=0;entryDy=0;fillColor=#dae8fc;strokeColor=#6c8ebf;" parent="1" source="IF5qdtuyDoSc5kXCkOFZ-3" target="IF5qdtuyDoSc5kXCkOFZ-29" edge="1">
          <mxGeometry relative="1" as="geometry" />
        </mxCell>
        <mxCell id="IF5qdtuyDoSc5kXCkOFZ-3" value="Логика" style="rounded=1;whiteSpace=wrap;html=1;" parent="1" vertex="1">
          <mxGeometry x="190" y="280" width="120" height="60" as="geometry" />
        </mxCell>
        <mxCell id="IF5qdtuyDoSc5kXCkOFZ-24" style="edgeStyle=orthogonalEdgeStyle;rounded=0;orthogonalLoop=1;jettySize=auto;html=1;exitX=1;exitY=0.5;exitDx=0;exitDy=0;entryX=0;entryY=0.5;entryDx=0;entryDy=0;" parent="1" source="IF5qdtuyDoSc5kXCkOFZ-4" target="IF5qdtuyDoSc5kXCkOFZ-23" edge="1">
          <mxGeometry relative="1" as="geometry" />
        </mxCell>
        <mxCell id="IF5qdtuyDoSc5kXCkOFZ-4" value="Интерфейс" style="rounded=1;whiteSpace=wrap;html=1;" parent="1" vertex="1">
          <mxGeometry x="540" y="-90" width="120" height="60" as="geometry" />
        </mxCell>
        <mxCell id="IF5qdtuyDoSc5kXCkOFZ-7" value="Экран" style="rounded=1;whiteSpace=wrap;html=1;fillColor=#d5e8d4;strokeColor=#82b366;" parent="1" vertex="1">
          <mxGeometry x="860" y="20" width="120" height="60" as="geometry" />
        </mxCell>
        <mxCell id="IF5qdtuyDoSc5kXCkOFZ-16" style="edgeStyle=orthogonalEdgeStyle;rounded=0;orthogonalLoop=1;jettySize=auto;html=1;exitX=1;exitY=0.5;exitDx=0;exitDy=0;entryX=0;entryY=0.5;entryDx=0;entryDy=0;fillColor=#d5e8d4;strokeColor=#82b366;" parent="1" source="IF5qdtuyDoSc5kXCkOFZ-11" target="IF5qdtuyDoSc5kXCkOFZ-12" edge="1">
          <mxGeometry relative="1" as="geometry" />
        </mxCell>
        <mxCell id="IF5qdtuyDoSc5kXCkOFZ-17" style="edgeStyle=orthogonalEdgeStyle;rounded=0;orthogonalLoop=1;jettySize=auto;html=1;exitX=1;exitY=0.5;exitDx=0;exitDy=0;entryX=0;entryY=0.5;entryDx=0;entryDy=0;fillColor=#d5e8d4;strokeColor=#82b366;" parent="1" source="IF5qdtuyDoSc5kXCkOFZ-11" target="IF5qdtuyDoSc5kXCkOFZ-13" edge="1">
          <mxGeometry relative="1" as="geometry" />
        </mxCell>
        <mxCell id="IF5qdtuyDoSc5kXCkOFZ-18" style="edgeStyle=orthogonalEdgeStyle;rounded=0;orthogonalLoop=1;jettySize=auto;html=1;exitX=1;exitY=0.5;exitDx=0;exitDy=0;entryX=0;entryY=0.5;entryDx=0;entryDy=0;fillColor=#d5e8d4;strokeColor=#82b366;" parent="1" source="IF5qdtuyDoSc5kXCkOFZ-11" target="IF5qdtuyDoSc5kXCkOFZ-14" edge="1">
          <mxGeometry relative="1" as="geometry" />
        </mxCell>
        <mxCell id="IF5qdtuyDoSc5kXCkOFZ-19" style="edgeStyle=orthogonalEdgeStyle;rounded=0;orthogonalLoop=1;jettySize=auto;html=1;exitX=1;exitY=0.5;exitDx=0;exitDy=0;entryX=0;entryY=0.5;entryDx=0;entryDy=0;fillColor=#d5e8d4;strokeColor=#82b366;" parent="1" source="IF5qdtuyDoSc5kXCkOFZ-11" target="IF5qdtuyDoSc5kXCkOFZ-15" edge="1">
          <mxGeometry relative="1" as="geometry" />
        </mxCell>
        <mxCell id="IF5qdtuyDoSc5kXCkOFZ-22" style="edgeStyle=orthogonalEdgeStyle;rounded=0;orthogonalLoop=1;jettySize=auto;html=1;exitX=1;exitY=0.5;exitDx=0;exitDy=0;entryX=0;entryY=0.5;entryDx=0;entryDy=0;fillColor=#d5e8d4;strokeColor=#82b366;" parent="1" source="IF5qdtuyDoSc5kXCkOFZ-11" target="IF5qdtuyDoSc5kXCkOFZ-21" edge="1">
          <mxGeometry relative="1" as="geometry" />
        </mxCell>
        <mxCell id="IF5qdtuyDoSc5kXCkOFZ-11" value="Игровая панель" style="rounded=1;whiteSpace=wrap;html=1;fillColor=#d5e8d4;strokeColor=#82b366;" parent="1" vertex="1">
          <mxGeometry x="860" y="-150" width="120" height="60" as="geometry" />
        </mxCell>
        <mxCell id="IF5qdtuyDoSc5kXCkOFZ-12" value="Панель поиска предметов&lt;span style=&quot;color: rgba(0 , 0 , 0 , 0) ; font-family: monospace ; font-size: 0px&quot;&gt;%3CmxGraphModel%3E%3Croot%3E%3CmxCell%20id%3D%220%22%2F%3E%3CmxCell%20id%3D%221%22%20parent%3D%220%22%2F%3E%3CmxCell%20id%3D%222%22%20value%3D%22%D0%A2%D0%B5%D0%BC%D0%BD%D1%8B%D0%B9%20%D1%8D%D0%BA%D1%80%D0%B0%D0%BD%22%20style%3D%22rounded%3D1%3BwhiteSpace%3Dwrap%3Bhtml%3D1%3B%22%20vertex%3D%221%22%20parent%3D%221%22%3E%3CmxGeometry%20x%3D%22670%22%20y%3D%22190%22%20width%3D%22120%22%20height%3D%2260%22%20as%3D%22geometry%22%2F%3E%3C%2FmxCell%3E%3C%2Froot%3E%3C%2FmxGraphModel%3E&lt;/span&gt;" style="rounded=1;whiteSpace=wrap;html=1;fillColor=#d5e8d4;strokeColor=#82b366;" parent="1" vertex="1">
          <mxGeometry x="1050" y="-230" width="120" height="40" as="geometry" />
        </mxCell>
        <mxCell id="IF5qdtuyDoSc5kXCkOFZ-13" value="Кнопка &quot;Лупа&quot;" style="rounded=1;whiteSpace=wrap;html=1;fillColor=#d5e8d4;strokeColor=#82b366;" parent="1" vertex="1">
          <mxGeometry x="1050" y="-180" width="120" height="30" as="geometry" />
        </mxCell>
        <mxCell id="IF5qdtuyDoSc5kXCkOFZ-14" value="Кнопка &quot;Зелье&quot;&lt;span style=&quot;color: rgba(0 , 0 , 0 , 0) ; font-family: monospace ; font-size: 0px&quot;&gt;%3CmxGraphModel%3E%3Croot%3E%3CmxCell%20id%3D%220%22%2F%3E%3CmxCell%20id%3D%221%22%20parent%3D%220%22%2F%3E%3CmxCell%20id%3D%222%22%20value%3D%22%D0%9A%D0%BD%D0%BE%D0%BF%D0%BA%D0%B0%20%26quot%3B%D0%9B%D1%83%D0%BF%D0%B0%26quot%3B%22%20style%3D%22rounded%3D1%3BwhiteSpace%3Dwrap%3Bhtml%3D1%3B%22%20vertex%3D%221%22%20parent%3D%221%22%3E%3CmxGeometry%20x%3D%22980%22%20y%3D%22140%22%20width%3D%22120%22%20height%3D%2260%22%20as%3D%22geometry%22%2F%3E%3C%2FmxCell%3E%3C%2Froot%3E%3C%2FmxGraphModel%3E&lt;/span&gt;" style="rounded=1;whiteSpace=wrap;html=1;fillColor=#d5e8d4;strokeColor=#82b366;" parent="1" vertex="1">
          <mxGeometry x="1050" y="-140" width="120" height="30" as="geometry" />
        </mxCell>
        <mxCell id="IF5qdtuyDoSc5kXCkOFZ-15" value="Кнопка &quot;Часы&quot;" style="rounded=1;whiteSpace=wrap;html=1;fillColor=#d5e8d4;strokeColor=#82b366;" parent="1" vertex="1">
          <mxGeometry x="1050" y="-100" width="120" height="30" as="geometry" />
        </mxCell>
        <mxCell id="IF5qdtuyDoSc5kXCkOFZ-21" value="Ползунок времени" style="rounded=1;whiteSpace=wrap;html=1;fillColor=#d5e8d4;strokeColor=#82b366;" parent="1" vertex="1">
          <mxGeometry x="1050" y="-60" width="120" height="30" as="geometry" />
        </mxCell>
        <mxCell id="IF5qdtuyDoSc5kXCkOFZ-25" style="edgeStyle=orthogonalEdgeStyle;rounded=0;orthogonalLoop=1;jettySize=auto;html=1;exitX=1;exitY=0.5;exitDx=0;exitDy=0;entryX=0;entryY=0.5;entryDx=0;entryDy=0;fillColor=#d5e8d4;strokeColor=#82b366;" parent="1" source="IF5qdtuyDoSc5kXCkOFZ-23" target="IF5qdtuyDoSc5kXCkOFZ-11" edge="1">
          <mxGeometry relative="1" as="geometry" />
        </mxCell>
        <mxCell id="IF5qdtuyDoSc5kXCkOFZ-26" style="edgeStyle=orthogonalEdgeStyle;rounded=0;orthogonalLoop=1;jettySize=auto;html=1;exitX=1;exitY=0.5;exitDx=0;exitDy=0;entryX=0;entryY=0.5;entryDx=0;entryDy=0;fillColor=#d5e8d4;strokeColor=#82b366;" parent="1" source="IF5qdtuyDoSc5kXCkOFZ-23" target="IF5qdtuyDoSc5kXCkOFZ-7" edge="1">
          <mxGeometry relative="1" as="geometry" />
        </mxCell>
        <mxCell id="IF5qdtuyDoSc5kXCkOFZ-23" value="Экран" style="rounded=1;whiteSpace=wrap;html=1;fillColor=#d5e8d4;strokeColor=#82b366;" parent="1" vertex="1">
          <mxGeometry x="700" y="-90" width="120" height="60" as="geometry" />
        </mxCell>
        <mxCell id="IF5qdtuyDoSc5kXCkOFZ-61" value="клик по экрану" style="edgeStyle=orthogonalEdgeStyle;rounded=0;orthogonalLoop=1;jettySize=auto;html=1;exitX=0;exitY=0.5;exitDx=0;exitDy=0;entryX=1;entryY=0.5;entryDx=0;entryDy=0;fillColor=#ffe6cc;strokeColor=#d79b00;" parent="1" source="IF5qdtuyDoSc5kXCkOFZ-29" target="IF5qdtuyDoSc5kXCkOFZ-59" edge="1">
          <mxGeometry relative="1" as="geometry" />
        </mxCell>
        <mxCell id="IF5qdtuyDoSc5kXCkOFZ-62" style="edgeStyle=orthogonalEdgeStyle;rounded=0;orthogonalLoop=1;jettySize=auto;html=1;exitX=0;exitY=0.5;exitDx=0;exitDy=0;entryX=1;entryY=0.5;entryDx=0;entryDy=0;fillColor=#ffe6cc;strokeColor=#d79b00;" parent="1" source="IF5qdtuyDoSc5kXCkOFZ-29" target="IF5qdtuyDoSc5kXCkOFZ-60" edge="1">
          <mxGeometry relative="1" as="geometry" />
        </mxCell>
        <mxCell id="IF5qdtuyDoSc5kXCkOFZ-29" value="Экран" style="rounded=1;whiteSpace=wrap;html=1;fillColor=#ffe6cc;strokeColor=#d79b00;" parent="1" vertex="1">
          <mxGeometry x="10" y="280" width="120" height="60" as="geometry" />
        </mxCell>
        <mxCell id="IF5qdtuyDoSc5kXCkOFZ-40" style="edgeStyle=orthogonalEdgeStyle;rounded=0;orthogonalLoop=1;jettySize=auto;html=1;exitX=0;exitY=0.5;exitDx=0;exitDy=0;entryX=1;entryY=0.5;entryDx=0;entryDy=0;fillColor=#dae8fc;strokeColor=#6c8ebf;" parent="1" source="IF5qdtuyDoSc5kXCkOFZ-31" target="IF5qdtuyDoSc5kXCkOFZ-32" edge="1">
          <mxGeometry relative="1" as="geometry" />
        </mxCell>
        <mxCell id="IF5qdtuyDoSc5kXCkOFZ-41" style="edgeStyle=orthogonalEdgeStyle;rounded=0;orthogonalLoop=1;jettySize=auto;html=1;exitX=0;exitY=0.5;exitDx=0;exitDy=0;entryX=1;entryY=0.5;entryDx=0;entryDy=0;fillColor=#dae8fc;strokeColor=#6c8ebf;" parent="1" source="IF5qdtuyDoSc5kXCkOFZ-31" target="IF5qdtuyDoSc5kXCkOFZ-33" edge="1">
          <mxGeometry relative="1" as="geometry" />
        </mxCell>
        <mxCell id="IF5qdtuyDoSc5kXCkOFZ-42" style="edgeStyle=orthogonalEdgeStyle;rounded=0;orthogonalLoop=1;jettySize=auto;html=1;exitX=0;exitY=0.5;exitDx=0;exitDy=0;entryX=1;entryY=0.5;entryDx=0;entryDy=0;fillColor=#dae8fc;strokeColor=#6c8ebf;" parent="1" source="IF5qdtuyDoSc5kXCkOFZ-31" target="IF5qdtuyDoSc5kXCkOFZ-34" edge="1">
          <mxGeometry relative="1" as="geometry" />
        </mxCell>
        <mxCell id="IF5qdtuyDoSc5kXCkOFZ-43" style="edgeStyle=orthogonalEdgeStyle;rounded=0;orthogonalLoop=1;jettySize=auto;html=1;exitX=0;exitY=0.5;exitDx=0;exitDy=0;entryX=1;entryY=0.5;entryDx=0;entryDy=0;fillColor=#dae8fc;strokeColor=#6c8ebf;" parent="1" source="IF5qdtuyDoSc5kXCkOFZ-31" target="IF5qdtuyDoSc5kXCkOFZ-35" edge="1">
          <mxGeometry relative="1" as="geometry" />
        </mxCell>
        <mxCell id="IF5qdtuyDoSc5kXCkOFZ-44" style="edgeStyle=orthogonalEdgeStyle;rounded=0;orthogonalLoop=1;jettySize=auto;html=1;exitX=0;exitY=0.5;exitDx=0;exitDy=0;entryX=1;entryY=0.5;entryDx=0;entryDy=0;fillColor=#dae8fc;strokeColor=#6c8ebf;" parent="1" source="IF5qdtuyDoSc5kXCkOFZ-31" target="IF5qdtuyDoSc5kXCkOFZ-36" edge="1">
          <mxGeometry relative="1" as="geometry" />
        </mxCell>
        <mxCell id="IF5qdtuyDoSc5kXCkOFZ-31" value="Игровая панель" style="rounded=1;whiteSpace=wrap;html=1;fillColor=#dae8fc;strokeColor=#6c8ebf;" parent="1" vertex="1">
          <mxGeometry x="30" y="-90" width="120" height="60" as="geometry" />
        </mxCell>
        <mxCell id="IF5qdtuyDoSc5kXCkOFZ-46" style="edgeStyle=orthogonalEdgeStyle;rounded=0;orthogonalLoop=1;jettySize=auto;html=1;exitX=0;exitY=0.5;exitDx=0;exitDy=0;entryX=1;entryY=0.5;entryDx=0;entryDy=0;fillColor=#dae8fc;strokeColor=#6c8ebf;" parent="1" source="IF5qdtuyDoSc5kXCkOFZ-32" target="IF5qdtuyDoSc5kXCkOFZ-45" edge="1">
          <mxGeometry relative="1" as="geometry" />
        </mxCell>
        <mxCell id="IF5qdtuyDoSc5kXCkOFZ-32" value="Панель поиска предметов&lt;span style=&quot;color: rgba(0 , 0 , 0 , 0) ; font-family: monospace ; font-size: 0px&quot;&gt;%3CmxGraphModel%3E%3Croot%3E%3CmxCell%20id%3D%220%22%2F%3E%3CmxCell%20id%3D%221%22%20parent%3D%220%22%2F%3E%3CmxCell%20id%3D%222%22%20value%3D%22%D0%A2%D0%B5%D0%BC%D0%BD%D1%8B%D0%B9%20%D1%8D%D0%BA%D1%80%D0%B0%D0%BD%22%20style%3D%22rounded%3D1%3BwhiteSpace%3Dwrap%3Bhtml%3D1%3B%22%20vertex%3D%221%22%20parent%3D%221%22%3E%3CmxGeometry%20x%3D%22670%22%20y%3D%22190%22%20width%3D%22120%22%20height%3D%2260%22%20as%3D%22geometry%22%2F%3E%3C%2FmxCell%3E%3C%2Froot%3E%3C%2FmxGraphModel%3E&lt;/span&gt;" style="rounded=1;whiteSpace=wrap;html=1;fillColor=#dae8fc;strokeColor=#6c8ebf;" parent="1" vertex="1">
          <mxGeometry x="-200" y="-180" width="120" height="40" as="geometry" />
        </mxCell>
        <mxCell id="IF5qdtuyDoSc5kXCkOFZ-50" value="клик" style="edgeStyle=orthogonalEdgeStyle;rounded=0;orthogonalLoop=1;jettySize=auto;html=1;exitX=0;exitY=0.5;exitDx=0;exitDy=0;entryX=1;entryY=0.5;entryDx=0;entryDy=0;fillColor=#dae8fc;strokeColor=#6c8ebf;" parent="1" source="IF5qdtuyDoSc5kXCkOFZ-33" target="IF5qdtuyDoSc5kXCkOFZ-49" edge="1">
          <mxGeometry relative="1" as="geometry" />
        </mxCell>
        <mxCell id="IF5qdtuyDoSc5kXCkOFZ-33" value="Кнопка &quot;Лупа&quot;" style="rounded=1;whiteSpace=wrap;html=1;fillColor=#dae8fc;strokeColor=#6c8ebf;" parent="1" vertex="1">
          <mxGeometry x="-200" y="-130" width="120" height="30" as="geometry" />
        </mxCell>
        <mxCell id="IF5qdtuyDoSc5kXCkOFZ-53" value="клик" style="edgeStyle=orthogonalEdgeStyle;rounded=0;orthogonalLoop=1;jettySize=auto;html=1;exitX=0;exitY=0.5;exitDx=0;exitDy=0;entryX=1;entryY=0.5;entryDx=0;entryDy=0;fillColor=#dae8fc;strokeColor=#6c8ebf;" parent="1" source="IF5qdtuyDoSc5kXCkOFZ-34" target="IF5qdtuyDoSc5kXCkOFZ-51" edge="1">
          <mxGeometry relative="1" as="geometry" />
        </mxCell>
        <mxCell id="IF5qdtuyDoSc5kXCkOFZ-34" value="Кнопка &quot;Зелье&quot;&lt;span style=&quot;color: rgba(0 , 0 , 0 , 0) ; font-family: monospace ; font-size: 0px&quot;&gt;%3CmxGraphModel%3E%3Croot%3E%3CmxCell%20id%3D%220%22%2F%3E%3CmxCell%20id%3D%221%22%20parent%3D%220%22%2F%3E%3CmxCell%20id%3D%222%22%20value%3D%22%D0%9A%D0%BD%D0%BE%D0%BF%D0%BA%D0%B0%20%26quot%3B%D0%9B%D1%83%D0%BF%D0%B0%26quot%3B%22%20style%3D%22rounded%3D1%3BwhiteSpace%3Dwrap%3Bhtml%3D1%3B%22%20vertex%3D%221%22%20parent%3D%221%22%3E%3CmxGeometry%20x%3D%22980%22%20y%3D%22140%22%20width%3D%22120%22%20height%3D%2260%22%20as%3D%22geometry%22%2F%3E%3C%2FmxCell%3E%3C%2Froot%3E%3C%2FmxGraphModel%3E&lt;/span&gt;" style="rounded=1;whiteSpace=wrap;html=1;fillColor=#dae8fc;strokeColor=#6c8ebf;" parent="1" vertex="1">
          <mxGeometry x="-200" y="-90" width="120" height="30" as="geometry" />
        </mxCell>
        <mxCell id="IF5qdtuyDoSc5kXCkOFZ-54" value="клик" style="edgeStyle=orthogonalEdgeStyle;rounded=0;orthogonalLoop=1;jettySize=auto;html=1;exitX=0;exitY=0.5;exitDx=0;exitDy=0;fillColor=#dae8fc;strokeColor=#6c8ebf;" parent="1" source="IF5qdtuyDoSc5kXCkOFZ-35" target="IF5qdtuyDoSc5kXCkOFZ-52" edge="1">
          <mxGeometry relative="1" as="geometry" />
        </mxCell>
        <mxCell id="IF5qdtuyDoSc5kXCkOFZ-35" value="Кнопка &quot;Часы&quot;" style="rounded=1;whiteSpace=wrap;html=1;fillColor=#dae8fc;strokeColor=#6c8ebf;" parent="1" vertex="1">
          <mxGeometry x="-200" y="-50" width="120" height="30" as="geometry" />
        </mxCell>
        <mxCell id="IF5qdtuyDoSc5kXCkOFZ-56" value="на старте" style="edgeStyle=orthogonalEdgeStyle;rounded=0;orthogonalLoop=1;jettySize=auto;html=1;exitX=0;exitY=0.5;exitDx=0;exitDy=0;entryX=1;entryY=0.5;entryDx=0;entryDy=0;fillColor=#dae8fc;strokeColor=#6c8ebf;" parent="1" source="IF5qdtuyDoSc5kXCkOFZ-36" target="IF5qdtuyDoSc5kXCkOFZ-55" edge="1">
          <mxGeometry relative="1" as="geometry" />
        </mxCell>
        <mxCell id="IF5qdtuyDoSc5kXCkOFZ-58" value="время тикает" style="edgeStyle=orthogonalEdgeStyle;rounded=0;orthogonalLoop=1;jettySize=auto;html=1;exitX=0;exitY=0.5;exitDx=0;exitDy=0;entryX=1;entryY=0.5;entryDx=0;entryDy=0;fillColor=#dae8fc;strokeColor=#6c8ebf;" parent="1" source="IF5qdtuyDoSc5kXCkOFZ-36" target="IF5qdtuyDoSc5kXCkOFZ-57" edge="1">
          <mxGeometry relative="1" as="geometry" />
        </mxCell>
        <mxCell id="IF5qdtuyDoSc5kXCkOFZ-36" value="Ползунок времени" style="rounded=1;whiteSpace=wrap;html=1;fillColor=#dae8fc;strokeColor=#6c8ebf;" parent="1" vertex="1">
          <mxGeometry x="-200" y="20" width="120" height="30" as="geometry" />
        </mxCell>
        <mxCell id="IF5qdtuyDoSc5kXCkOFZ-48" value="предмет нашли" style="edgeStyle=orthogonalEdgeStyle;rounded=0;orthogonalLoop=1;jettySize=auto;html=1;exitX=0;exitY=0.5;exitDx=0;exitDy=0;entryX=1;entryY=0.5;entryDx=0;entryDy=0;fillColor=#dae8fc;strokeColor=#6c8ebf;" parent="1" source="IF5qdtuyDoSc5kXCkOFZ-45" target="IF5qdtuyDoSc5kXCkOFZ-47" edge="1">
          <mxGeometry relative="1" as="geometry" />
        </mxCell>
        <mxCell id="IF5qdtuyDoSc5kXCkOFZ-45" value="Появляется список предметов для поиска" style="rounded=1;whiteSpace=wrap;html=1;fillColor=#dae8fc;strokeColor=#6c8ebf;" parent="1" vertex="1">
          <mxGeometry x="-400" y="-200" width="120" height="40" as="geometry" />
        </mxCell>
        <mxCell id="IF5qdtuyDoSc5kXCkOFZ-47" value="Найденный предмет исчезает, появляется новый" style="rounded=1;whiteSpace=wrap;html=1;fillColor=#dae8fc;strokeColor=#6c8ebf;" parent="1" vertex="1">
          <mxGeometry x="-650" y="-220" width="120" height="50" as="geometry" />
        </mxCell>
        <mxCell id="IF5qdtuyDoSc5kXCkOFZ-49" value="что-то происходит" style="rounded=1;whiteSpace=wrap;html=1;fillColor=#dae8fc;strokeColor=#6c8ebf;" parent="1" vertex="1">
          <mxGeometry x="-400" y="-135" width="120" height="40" as="geometry" />
        </mxCell>
        <mxCell id="IF5qdtuyDoSc5kXCkOFZ-51" value="что-то происходит" style="rounded=1;whiteSpace=wrap;html=1;fillColor=#dae8fc;strokeColor=#6c8ebf;" parent="1" vertex="1">
          <mxGeometry x="-400" y="-95" width="120" height="40" as="geometry" />
        </mxCell>
        <mxCell id="IF5qdtuyDoSc5kXCkOFZ-52" value="что-то происходит" style="rounded=1;whiteSpace=wrap;html=1;fillColor=#dae8fc;strokeColor=#6c8ebf;" parent="1" vertex="1">
          <mxGeometry x="-400" y="-55" width="120" height="40" as="geometry" />
        </mxCell>
        <mxCell id="IF5qdtuyDoSc5kXCkOFZ-55" value="ползунок синий" style="rounded=1;whiteSpace=wrap;html=1;fillColor=#dae8fc;strokeColor=#6c8ebf;" parent="1" vertex="1">
          <mxGeometry x="-400" width="120" height="40" as="geometry" />
        </mxCell>
        <mxCell id="IF5qdtuyDoSc5kXCkOFZ-57" value="ползунок становится меньше" style="rounded=1;whiteSpace=wrap;html=1;fillColor=#dae8fc;strokeColor=#6c8ebf;" parent="1" vertex="1">
          <mxGeometry x="-400" y="100" width="120" height="40" as="geometry" />
        </mxCell>
        <mxCell id="IF5qdtuyDoSc5kXCkOFZ-64" style="edgeStyle=orthogonalEdgeStyle;rounded=0;orthogonalLoop=1;jettySize=auto;html=1;exitX=0;exitY=0.5;exitDx=0;exitDy=0;entryX=1;entryY=0.5;entryDx=0;entryDy=0;fillColor=#ffe6cc;strokeColor=#d79b00;" parent="1" source="IF5qdtuyDoSc5kXCkOFZ-59" target="IF5qdtuyDoSc5kXCkOFZ-63" edge="1">
          <mxGeometry relative="1" as="geometry" />
        </mxCell>
        <mxCell id="IF5qdtuyDoSc5kXCkOFZ-59" value="ФОнарь активен" style="rounded=1;whiteSpace=wrap;html=1;fillColor=#ffe6cc;strokeColor=#d79b00;" parent="1" vertex="1">
          <mxGeometry x="-220" y="250" width="120" height="40" as="geometry" />
        </mxCell>
        <mxCell id="IF5qdtuyDoSc5kXCkOFZ-66" style="edgeStyle=orthogonalEdgeStyle;rounded=0;orthogonalLoop=1;jettySize=auto;html=1;exitX=0;exitY=0.5;exitDx=0;exitDy=0;entryX=1;entryY=0.5;entryDx=0;entryDy=0;fillColor=#ffe6cc;strokeColor=#d79b00;" parent="1" source="IF5qdtuyDoSc5kXCkOFZ-60" target="IF5qdtuyDoSc5kXCkOFZ-65" edge="1">
          <mxGeometry relative="1" as="geometry" />
        </mxCell>
        <mxCell id="IF5qdtuyDoSc5kXCkOFZ-60" value="ФОнарь неактивен" style="rounded=1;whiteSpace=wrap;html=1;fillColor=#ffe6cc;strokeColor=#d79b00;" parent="1" vertex="1">
          <mxGeometry x="-220" y="320" width="120" height="40" as="geometry" />
        </mxCell>
        <mxCell id="IF5qdtuyDoSc5kXCkOFZ-63" value="луч света освещает часть комнаты" style="rounded=1;whiteSpace=wrap;html=1;fillColor=#ffe6cc;strokeColor=#d79b00;" parent="1" vertex="1">
          <mxGeometry x="-430" y="250" width="120" height="40" as="geometry" />
        </mxCell>
        <mxCell id="IF5qdtuyDoSc5kXCkOFZ-65" value="Комната темная" style="rounded=1;whiteSpace=wrap;html=1;fillColor=#ffe6cc;strokeColor=#d79b00;" parent="1" vertex="1">
          <mxGeometry x="-430" y="320" width="120" height="40" as="geometry" />
        </mxCell>
        <mxCell id="IF5qdtuyDoSc5kXCkOFZ-87" style="edgeStyle=orthogonalEdgeStyle;rounded=0;orthogonalLoop=1;jettySize=auto;html=1;exitX=1;exitY=0.5;exitDx=0;exitDy=0;entryX=0;entryY=0.5;entryDx=0;entryDy=0;fontSize=12;" parent="1" source="IF5qdtuyDoSc5kXCkOFZ-67" target="IF5qdtuyDoSc5kXCkOFZ-86" edge="1">
          <mxGeometry relative="1" as="geometry" />
        </mxCell>
        <mxCell id="IF5qdtuyDoSc5kXCkOFZ-126" style="edgeStyle=orthogonalEdgeStyle;rounded=0;orthogonalLoop=1;jettySize=auto;html=1;exitX=0;exitY=0.5;exitDx=0;exitDy=0;entryX=1;entryY=0.5;entryDx=0;entryDy=0;fontSize=12;" parent="1" source="IF5qdtuyDoSc5kXCkOFZ-67" target="IF5qdtuyDoSc5kXCkOFZ-91" edge="1">
          <mxGeometry relative="1" as="geometry" />
        </mxCell>
        <mxCell id="IF5qdtuyDoSc5kXCkOFZ-67" value="Аномалия &quot;Заросли плюща&quot;" style="rounded=0;whiteSpace=wrap;html=1;fontSize=12;fillColor=#f5f5f5;strokeColor=#666666;fontColor=#333333;" parent="1" vertex="1">
          <mxGeometry x="350" y="575" width="120" height="60" as="geometry" />
        </mxCell>
        <mxCell id="IF5qdtuyDoSc5kXCkOFZ-69" value="Экран без аномалии" style="rounded=1;whiteSpace=wrap;html=1;fillColor=#d5e8d4;strokeColor=#82b366;" parent="1" vertex="1">
          <mxGeometry x="870" y="470" width="120" height="60" as="geometry" />
        </mxCell>
        <mxCell id="IF5qdtuyDoSc5kXCkOFZ-70" value="Экран с аномалией" style="rounded=1;whiteSpace=wrap;html=1;fillColor=#d5e8d4;strokeColor=#82b366;" parent="1" vertex="1">
          <mxGeometry x="870" y="620" width="120" height="60" as="geometry" />
        </mxCell>
        <mxCell id="IF5qdtuyDoSc5kXCkOFZ-83" style="edgeStyle=orthogonalEdgeStyle;rounded=0;orthogonalLoop=1;jettySize=auto;html=1;exitX=1;exitY=0.5;exitDx=0;exitDy=0;entryX=0;entryY=0.5;entryDx=0;entryDy=0;fillColor=#d5e8d4;strokeColor=#82b366;" parent="1" source="IF5qdtuyDoSc5kXCkOFZ-85" target="IF5qdtuyDoSc5kXCkOFZ-69" edge="1">
          <mxGeometry relative="1" as="geometry" />
        </mxCell>
        <mxCell id="IF5qdtuyDoSc5kXCkOFZ-84" style="edgeStyle=orthogonalEdgeStyle;rounded=0;orthogonalLoop=1;jettySize=auto;html=1;exitX=1;exitY=0.5;exitDx=0;exitDy=0;entryX=0;entryY=0.5;entryDx=0;entryDy=0;fillColor=#d5e8d4;strokeColor=#82b366;" parent="1" source="IF5qdtuyDoSc5kXCkOFZ-85" target="IF5qdtuyDoSc5kXCkOFZ-70" edge="1">
          <mxGeometry relative="1" as="geometry" />
        </mxCell>
        <mxCell id="IF5qdtuyDoSc5kXCkOFZ-85" value="Экран" style="rounded=1;whiteSpace=wrap;html=1;fillColor=#d5e8d4;strokeColor=#82b366;" parent="1" vertex="1">
          <mxGeometry x="710" y="575" width="120" height="60" as="geometry" />
        </mxCell>
        <mxCell id="IF5qdtuyDoSc5kXCkOFZ-88" style="edgeStyle=orthogonalEdgeStyle;rounded=0;orthogonalLoop=1;jettySize=auto;html=1;exitX=1;exitY=0.5;exitDx=0;exitDy=0;entryX=0;entryY=0.5;entryDx=0;entryDy=0;fontSize=12;" parent="1" source="IF5qdtuyDoSc5kXCkOFZ-86" target="IF5qdtuyDoSc5kXCkOFZ-85" edge="1">
          <mxGeometry relative="1" as="geometry" />
        </mxCell>
        <mxCell id="IF5qdtuyDoSc5kXCkOFZ-86" value="Интерфейс" style="rounded=1;whiteSpace=wrap;html=1;fontSize=12;" parent="1" vertex="1">
          <mxGeometry x="520" y="575" width="120" height="60" as="geometry" />
        </mxCell>
        <mxCell id="IF5qdtuyDoSc5kXCkOFZ-90" style="edgeStyle=orthogonalEdgeStyle;rounded=0;orthogonalLoop=1;jettySize=auto;html=1;exitX=0;exitY=0.5;exitDx=0;exitDy=0;entryX=1;entryY=0.5;entryDx=0;entryDy=0;fillColor=#ffe6cc;strokeColor=#d79b00;" parent="1" source="IF5qdtuyDoSc5kXCkOFZ-91" target="IF5qdtuyDoSc5kXCkOFZ-94" edge="1">
          <mxGeometry relative="1" as="geometry" />
        </mxCell>
        <mxCell id="IF5qdtuyDoSc5kXCkOFZ-91" value="Логика" style="rounded=1;whiteSpace=wrap;html=1;" parent="1" vertex="1">
          <mxGeometry x="190" y="575" width="120" height="60" as="geometry" />
        </mxCell>
        <mxCell id="IF5qdtuyDoSc5kXCkOFZ-92" value="клик по экрану" style="edgeStyle=orthogonalEdgeStyle;rounded=0;orthogonalLoop=1;jettySize=auto;html=1;exitX=0;exitY=0.5;exitDx=0;exitDy=0;entryX=1;entryY=0.5;entryDx=0;entryDy=0;fillColor=#b1ddf0;strokeColor=#10739e;" parent="1" source="IF5qdtuyDoSc5kXCkOFZ-94" target="IF5qdtuyDoSc5kXCkOFZ-121" edge="1">
          <mxGeometry relative="1" as="geometry" />
        </mxCell>
        <mxCell id="IF5qdtuyDoSc5kXCkOFZ-93" style="edgeStyle=orthogonalEdgeStyle;rounded=0;orthogonalLoop=1;jettySize=auto;html=1;exitX=0;exitY=0.5;exitDx=0;exitDy=0;entryX=1;entryY=0.5;entryDx=0;entryDy=0;fillColor=#b1ddf0;strokeColor=#10739e;" parent="1" source="IF5qdtuyDoSc5kXCkOFZ-94" target="IF5qdtuyDoSc5kXCkOFZ-123" edge="1">
          <mxGeometry relative="1" as="geometry" />
        </mxCell>
        <mxCell id="IF5qdtuyDoSc5kXCkOFZ-94" value="Экран" style="rounded=1;whiteSpace=wrap;html=1;fillColor=#b1ddf0;strokeColor=#10739e;" parent="1" vertex="1">
          <mxGeometry x="-20" y="575" width="120" height="60" as="geometry" />
        </mxCell>
        <mxCell id="IF5qdtuyDoSc5kXCkOFZ-120" value="клик по экрану" style="edgeStyle=orthogonalEdgeStyle;rounded=0;orthogonalLoop=1;jettySize=auto;html=1;exitX=0;exitY=0.5;exitDx=0;exitDy=0;entryX=1;entryY=0.5;entryDx=0;entryDy=0;fillColor=#b1ddf0;strokeColor=#10739e;" parent="1" source="IF5qdtuyDoSc5kXCkOFZ-121" target="IF5qdtuyDoSc5kXCkOFZ-124" edge="1">
          <mxGeometry relative="1" as="geometry" />
        </mxCell>
        <mxCell id="IF5qdtuyDoSc5kXCkOFZ-121" value="Вырос плющ" style="rounded=1;whiteSpace=wrap;html=1;fillColor=#b1ddf0;strokeColor=#10739e;" parent="1" vertex="1">
          <mxGeometry x="-220" y="545" width="120" height="40" as="geometry" />
        </mxCell>
        <mxCell id="IF5qdtuyDoSc5kXCkOFZ-122" style="edgeStyle=orthogonalEdgeStyle;rounded=0;orthogonalLoop=1;jettySize=auto;html=1;exitX=0;exitY=0.5;exitDx=0;exitDy=0;entryX=1;entryY=0.5;entryDx=0;entryDy=0;fillColor=#b1ddf0;strokeColor=#10739e;" parent="1" source="IF5qdtuyDoSc5kXCkOFZ-123" target="IF5qdtuyDoSc5kXCkOFZ-125" edge="1">
          <mxGeometry relative="1" as="geometry" />
        </mxCell>
        <mxCell id="IF5qdtuyDoSc5kXCkOFZ-123" value="Плюща нет" style="rounded=1;whiteSpace=wrap;html=1;fillColor=#b1ddf0;strokeColor=#10739e;" parent="1" vertex="1">
          <mxGeometry x="-220" y="615" width="120" height="40" as="geometry" />
        </mxCell>
        <mxCell id="IF5qdtuyDoSc5kXCkOFZ-153" value="водим по плющу" style="edgeStyle=orthogonalEdgeStyle;rounded=0;orthogonalLoop=1;jettySize=auto;html=1;exitX=0;exitY=0.5;exitDx=0;exitDy=0;entryX=1;entryY=0.5;entryDx=0;entryDy=0;fontSize=12;" parent="1" source="IF5qdtuyDoSc5kXCkOFZ-124" target="IF5qdtuyDoSc5kXCkOFZ-152" edge="1">
          <mxGeometry relative="1" as="geometry" />
        </mxCell>
        <mxCell id="IF5qdtuyDoSc5kXCkOFZ-124" value="Появился секатор" style="rounded=1;whiteSpace=wrap;html=1;fillColor=#b1ddf0;strokeColor=#10739e;" parent="1" vertex="1">
          <mxGeometry x="-430" y="545" width="120" height="40" as="geometry" />
        </mxCell>
        <mxCell id="IF5qdtuyDoSc5kXCkOFZ-125" value="Радуемся!" style="rounded=1;whiteSpace=wrap;html=1;fillColor=#b1ddf0;strokeColor=#10739e;" parent="1" vertex="1">
          <mxGeometry x="-430" y="615" width="120" height="40" as="geometry" />
        </mxCell>
        <mxCell id="IF5qdtuyDoSc5kXCkOFZ-135" style="edgeStyle=orthogonalEdgeStyle;rounded=0;orthogonalLoop=1;jettySize=auto;html=1;exitX=0;exitY=0.5;exitDx=0;exitDy=0;entryX=1;entryY=0.5;entryDx=0;entryDy=0;fontSize=12;" parent="1" source="IF5qdtuyDoSc5kXCkOFZ-131" target="IF5qdtuyDoSc5kXCkOFZ-133" edge="1">
          <mxGeometry relative="1" as="geometry" />
        </mxCell>
        <mxCell id="IF5qdtuyDoSc5kXCkOFZ-141" style="edgeStyle=orthogonalEdgeStyle;rounded=0;orthogonalLoop=1;jettySize=auto;html=1;exitX=1;exitY=0.5;exitDx=0;exitDy=0;entryX=0;entryY=0.5;entryDx=0;entryDy=0;fontSize=12;" parent="1" source="IF5qdtuyDoSc5kXCkOFZ-131" target="IF5qdtuyDoSc5kXCkOFZ-4" edge="1">
          <mxGeometry relative="1" as="geometry" />
        </mxCell>
        <mxCell id="IF5qdtuyDoSc5kXCkOFZ-131" value="Игра" style="rounded=0;whiteSpace=wrap;html=1;fontSize=12;fillColor=#f5f5f5;strokeColor=#666666;fontColor=#333333;" parent="1" vertex="1">
          <mxGeometry x="370" y="-90" width="120" height="60" as="geometry" />
        </mxCell>
        <mxCell id="IF5qdtuyDoSc5kXCkOFZ-134" style="edgeStyle=orthogonalEdgeStyle;rounded=0;orthogonalLoop=1;jettySize=auto;html=1;exitX=0;exitY=0.5;exitDx=0;exitDy=0;entryX=1;entryY=0.5;entryDx=0;entryDy=0;fontSize=12;" parent="1" source="IF5qdtuyDoSc5kXCkOFZ-133" target="IF5qdtuyDoSc5kXCkOFZ-31" edge="1">
          <mxGeometry relative="1" as="geometry" />
        </mxCell>
        <mxCell id="IF5qdtuyDoSc5kXCkOFZ-140" style="edgeStyle=orthogonalEdgeStyle;rounded=0;orthogonalLoop=1;jettySize=auto;html=1;exitX=0;exitY=0.5;exitDx=0;exitDy=0;entryX=1;entryY=0.5;entryDx=0;entryDy=0;fontSize=12;" parent="1" source="IF5qdtuyDoSc5kXCkOFZ-133" target="IF5qdtuyDoSc5kXCkOFZ-137" edge="1">
          <mxGeometry relative="1" as="geometry" />
        </mxCell>
        <mxCell id="IF5qdtuyDoSc5kXCkOFZ-133" value="Логика" style="rounded=1;whiteSpace=wrap;html=1;fontSize=12;" parent="1" vertex="1">
          <mxGeometry x="200" y="-90" width="120" height="60" as="geometry" />
        </mxCell>
        <mxCell id="IF5qdtuyDoSc5kXCkOFZ-136" value="найден" style="edgeStyle=orthogonalEdgeStyle;rounded=0;orthogonalLoop=1;jettySize=auto;html=1;exitX=0;exitY=0.5;exitDx=0;exitDy=0;entryX=1;entryY=0.5;entryDx=0;entryDy=0;fontSize=12;fillColor=#dae8fc;strokeColor=#6c8ebf;" parent="1" source="IF5qdtuyDoSc5kXCkOFZ-137" target="IF5qdtuyDoSc5kXCkOFZ-138" edge="1">
          <mxGeometry relative="1" as="geometry" />
        </mxCell>
        <mxCell id="IF5qdtuyDoSc5kXCkOFZ-137" value="Поиск предметов" style="rounded=1;whiteSpace=wrap;html=1;fontSize=12;fillColor=#dae8fc;strokeColor=#6c8ebf;" parent="1" vertex="1">
          <mxGeometry x="30" y="110" width="120" height="60" as="geometry" />
        </mxCell>
        <mxCell id="IF5qdtuyDoSc5kXCkOFZ-138" value="Предмет исчезает" style="rounded=1;whiteSpace=wrap;html=1;fontSize=12;fillColor=#dae8fc;strokeColor=#6c8ebf;" parent="1" vertex="1">
          <mxGeometry x="-200" y="120" width="120" height="40" as="geometry" />
        </mxCell>
        <mxCell id="IF5qdtuyDoSc5kXCkOFZ-142" style="edgeStyle=orthogonalEdgeStyle;rounded=0;orthogonalLoop=1;jettySize=auto;html=1;exitX=1;exitY=0.5;exitDx=0;exitDy=0;entryX=0;entryY=0.5;entryDx=0;entryDy=0;" parent="1" source="IF5qdtuyDoSc5kXCkOFZ-143" target="IF5qdtuyDoSc5kXCkOFZ-146" edge="1">
          <mxGeometry relative="1" as="geometry" />
        </mxCell>
        <mxCell id="IF5qdtuyDoSc5kXCkOFZ-143" value="Интерфейс" style="rounded=1;whiteSpace=wrap;html=1;" parent="1" vertex="1">
          <mxGeometry x="510" y="280" width="120" height="60" as="geometry" />
        </mxCell>
        <mxCell id="IF5qdtuyDoSc5kXCkOFZ-150" style="edgeStyle=orthogonalEdgeStyle;rounded=0;orthogonalLoop=1;jettySize=auto;html=1;exitX=1;exitY=0.5;exitDx=0;exitDy=0;entryX=0;entryY=0.5;entryDx=0;entryDy=0;fontSize=12;fillColor=#f8cecc;strokeColor=#b85450;" parent="1" source="IF5qdtuyDoSc5kXCkOFZ-146" target="IF5qdtuyDoSc5kXCkOFZ-148" edge="1">
          <mxGeometry relative="1" as="geometry" />
        </mxCell>
        <mxCell id="IF5qdtuyDoSc5kXCkOFZ-151" style="edgeStyle=orthogonalEdgeStyle;rounded=0;orthogonalLoop=1;jettySize=auto;html=1;exitX=1;exitY=0.5;exitDx=0;exitDy=0;entryX=0;entryY=0.5;entryDx=0;entryDy=0;fontSize=12;fillColor=#f8cecc;strokeColor=#b85450;" parent="1" source="IF5qdtuyDoSc5kXCkOFZ-146" target="IF5qdtuyDoSc5kXCkOFZ-149" edge="1">
          <mxGeometry relative="1" as="geometry" />
        </mxCell>
        <mxCell id="IF5qdtuyDoSc5kXCkOFZ-146" value="Экран" style="rounded=1;whiteSpace=wrap;html=1;fillColor=#f8cecc;strokeColor=#b85450;" parent="1" vertex="1">
          <mxGeometry x="670" y="280" width="120" height="60" as="geometry" />
        </mxCell>
        <mxCell id="IF5qdtuyDoSc5kXCkOFZ-148" value="Темный экран" style="rounded=1;whiteSpace=wrap;html=1;fontSize=12;fillColor=#f8cecc;strokeColor=#b85450;" parent="1" vertex="1">
          <mxGeometry x="860" y="230" width="120" height="60" as="geometry" />
        </mxCell>
        <mxCell id="IF5qdtuyDoSc5kXCkOFZ-149" value="Экран с лучом света" style="rounded=1;whiteSpace=wrap;html=1;fontSize=12;fillColor=#f8cecc;strokeColor=#b85450;" parent="1" vertex="1">
          <mxGeometry x="860" y="310" width="120" height="60" as="geometry" />
        </mxCell>
        <mxCell id="IF5qdtuyDoSc5kXCkOFZ-152" value="Плющ исчезает" style="rounded=1;whiteSpace=wrap;html=1;fontSize=12;" parent="1" vertex="1">
          <mxGeometry x="-660" y="540" width="120" height="30" as="geometry" />
        </mxCell>
      </root>
    </mxGraphModel>
  </diagram>
</mxfile>
